<mxfile host="app.diagrams.net" agent="Mozilla/5.0 (Windows NT 10.0; Win64; x64) AppleWebKit/537.36 (KHTML, like Gecko) Chrome/138.0.0.0 Safari/537.36" version="28.0.4">
  <diagram name="第 1 页" id="bhQ5RXcVtrIi01IStdyy">
    <mxGraphModel dx="1426" dy="751" grid="0" gridSize="10" guides="1" tooltips="1" connect="1" arrows="1" fold="1" page="0" pageScale="1" pageWidth="827" pageHeight="1169" math="0" shadow="0">
      <root>
        <mxCell id="0" />
        <mxCell id="1" parent="0" />
        <mxCell id="aAAYCU_3mX3JAvbKvT7G-4" style="edgeStyle=orthogonalEdgeStyle;rounded=0;sketch=1;hachureGap=4;jiggle=2;curveFitting=1;orthogonalLoop=1;jettySize=auto;html=1;fontFamily=Architects Daughter;fontSource=https%3A%2F%2Ffonts.googleapis.com%2Fcss%3Ffamily%3DArchitects%2BDaughter;" edge="1" parent="1" source="aAAYCU_3mX3JAvbKvT7G-1" target="aAAYCU_3mX3JAvbKvT7G-2">
          <mxGeometry relative="1" as="geometry" />
        </mxCell>
        <mxCell id="aAAYCU_3mX3JAvbKvT7G-1" value="&lt;font style=&quot;font-size: 14px;&quot; face=&quot;Comic Sans MS&quot;&gt;FlushMRSOp::Perform&lt;/font&gt;" style="rounded=1;whiteSpace=wrap;html=1;sketch=1;hachureGap=4;jiggle=2;curveFitting=1;fontFamily=Architects Daughter;fontSource=https%3A%2F%2Ffonts.googleapis.com%2Fcss%3Ffamily%3DArchitects%2BDaughter;" vertex="1" parent="1">
          <mxGeometry x="270" y="230" width="170" height="70" as="geometry" />
        </mxCell>
        <mxCell id="aAAYCU_3mX3JAvbKvT7G-5" style="edgeStyle=orthogonalEdgeStyle;rounded=0;sketch=1;hachureGap=4;jiggle=2;curveFitting=1;orthogonalLoop=1;jettySize=auto;html=1;fontFamily=Architects Daughter;fontSource=https%3A%2F%2Ffonts.googleapis.com%2Fcss%3Ffamily%3DArchitects%2BDaughter;" edge="1" parent="1" source="aAAYCU_3mX3JAvbKvT7G-2" target="aAAYCU_3mX3JAvbKvT7G-3">
          <mxGeometry relative="1" as="geometry" />
        </mxCell>
        <mxCell id="aAAYCU_3mX3JAvbKvT7G-2" value="&lt;font face=&quot;Comic Sans MS&quot;&gt;&lt;span style=&quot;font-size: 14px;&quot;&gt;Tablet::FlushUnlocked&lt;/span&gt;&lt;/font&gt;" style="rounded=1;whiteSpace=wrap;html=1;sketch=1;hachureGap=4;jiggle=2;curveFitting=1;fontFamily=Architects Daughter;fontSource=https%3A%2F%2Ffonts.googleapis.com%2Fcss%3Ffamily%3DArchitects%2BDaughter;" vertex="1" parent="1">
          <mxGeometry x="270" y="370" width="170" height="50" as="geometry" />
        </mxCell>
        <mxCell id="aAAYCU_3mX3JAvbKvT7G-7" style="rounded=0;sketch=1;hachureGap=4;jiggle=2;curveFitting=1;orthogonalLoop=1;jettySize=auto;html=1;exitX=1;exitY=0;exitDx=0;exitDy=0;entryX=0;entryY=0;entryDx=0;entryDy=0;fontFamily=Architects Daughter;fontSource=https%3A%2F%2Ffonts.googleapis.com%2Fcss%3Ffamily%3DArchitects%2BDaughter;dashed=1;dashPattern=8 8;" edge="1" parent="1" source="aAAYCU_3mX3JAvbKvT7G-3" target="aAAYCU_3mX3JAvbKvT7G-6">
          <mxGeometry relative="1" as="geometry" />
        </mxCell>
        <mxCell id="aAAYCU_3mX3JAvbKvT7G-8" style="rounded=0;sketch=1;hachureGap=4;jiggle=2;curveFitting=1;orthogonalLoop=1;jettySize=auto;html=1;exitX=1;exitY=1;exitDx=0;exitDy=0;entryX=0;entryY=1;entryDx=0;entryDy=0;fontFamily=Architects Daughter;fontSource=https%3A%2F%2Ffonts.googleapis.com%2Fcss%3Ffamily%3DArchitects%2BDaughter;dashed=1;dashPattern=8 8;" edge="1" parent="1" source="aAAYCU_3mX3JAvbKvT7G-3" target="aAAYCU_3mX3JAvbKvT7G-6">
          <mxGeometry relative="1" as="geometry" />
        </mxCell>
        <mxCell id="aAAYCU_3mX3JAvbKvT7G-3" value="&lt;font face=&quot;Comic Sans MS&quot;&gt;&lt;span style=&quot;font-size: 14px;&quot;&gt;Tablet::DoMergeCompactionOrFlush&lt;/span&gt;&lt;/font&gt;" style="rounded=1;whiteSpace=wrap;html=1;sketch=1;hachureGap=4;jiggle=2;curveFitting=1;fontFamily=Architects Daughter;fontSource=https%3A%2F%2Ffonts.googleapis.com%2Fcss%3Ffamily%3DArchitects%2BDaughter;" vertex="1" parent="1">
          <mxGeometry x="230" y="500" width="250" height="60" as="geometry" />
        </mxCell>
        <mxCell id="aAAYCU_3mX3JAvbKvT7G-6" value="&lt;h1 style=&quot;margin-top: 0px;&quot;&gt;&lt;font style=&quot;font-size: 20px;&quot;&gt;core logic&lt;/font&gt;&lt;/h1&gt;&lt;p style=&quot;line-height: 100%;&quot;&gt;&amp;nbsp;&lt;font face=&quot;Helvetica&quot; style=&quot;font-size: 10px;&quot;&gt; shared_ptr&amp;lt;CompactionInput&amp;gt; merge;&lt;/font&gt;&lt;/p&gt;&lt;p style=&quot;line-height: 100%;&quot;&gt;&lt;font face=&quot;Helvetica&quot; style=&quot;font-size: 10px;&quot;&gt;&amp;nbsp; RETURN_NOT_OK(input.CreateCompactionInput(flush_snap, schema(), &amp;amp;io_context, &amp;amp;merge));&lt;/font&gt;&lt;/p&gt;&lt;p style=&quot;line-height: 100%;&quot;&gt;&lt;font face=&quot;Helvetica&quot; style=&quot;font-size: 10px;&quot;&gt;&lt;br&gt;&lt;/font&gt;&lt;/p&gt;&lt;p style=&quot;line-height: 100%;&quot;&gt;&lt;font face=&quot;Helvetica&quot; style=&quot;font-size: 10px;&quot;&gt;&amp;nbsp; RollingDiskRowSetWriter drsw(metadata_.get(), merge-&amp;gt;schema(), DefaultBloomSizing(),&lt;/font&gt;&lt;/p&gt;&lt;p style=&quot;line-height: 100%;&quot;&gt;&lt;font face=&quot;Helvetica&quot; style=&quot;font-size: 10px;&quot;&gt;&amp;nbsp; &amp;nbsp; &amp;nbsp; &amp;nbsp; &amp;nbsp; &amp;nbsp; &amp;nbsp; &amp;nbsp; &amp;nbsp; &amp;nbsp; &amp;nbsp; &amp;nbsp; &amp;nbsp; &amp;nbsp; &amp;nbsp; &amp;nbsp;compaction_policy_-&amp;gt;target_rowset_size());&lt;/font&gt;&lt;/p&gt;&lt;p style=&quot;line-height: 100%;&quot;&gt;&lt;font face=&quot;Helvetica&quot; style=&quot;font-size: 10px;&quot;&gt;&amp;nbsp; RETURN_NOT_OK_PREPEND(drsw.Open(), &quot;Failed to open DiskRowSet for flush&quot;);&lt;/font&gt;&lt;/p&gt;&lt;p style=&quot;line-height: 100%;&quot;&gt;&lt;font face=&quot;Helvetica&quot; style=&quot;font-size: 10px;&quot;&gt;&lt;br&gt;&lt;/font&gt;&lt;/p&gt;&lt;p style=&quot;line-height: 100%;&quot;&gt;&lt;font face=&quot;Helvetica&quot; style=&quot;font-size: 10px;&quot;&gt;&amp;nbsp; HistoryGcOpts history_gc_opts = GetHistoryGcOpts();&lt;/font&gt;&lt;/p&gt;&lt;p style=&quot;line-height: 100%;&quot;&gt;&lt;font face=&quot;Helvetica&quot; style=&quot;font-size: 10px;&quot;&gt;&amp;nbsp; RETURN_NOT_OK_PREPEND(&lt;/font&gt;&lt;/p&gt;&lt;p style=&quot;line-height: 100%;&quot;&gt;&lt;font face=&quot;Helvetica&quot; style=&quot;font-size: 10px;&quot;&gt;&amp;nbsp; &amp;nbsp; &amp;nbsp; FlushCompactionInput(&lt;/font&gt;&lt;/p&gt;&lt;p style=&quot;line-height: 100%;&quot;&gt;&lt;font face=&quot;Helvetica&quot; style=&quot;font-size: 10px;&quot;&gt;&amp;nbsp; &amp;nbsp; &amp;nbsp; &amp;nbsp; &amp;nbsp; tid, metadata_-&amp;gt;fs_manager()-&amp;gt;block_manager()-&amp;gt;error_manager(),&lt;/font&gt;&lt;/p&gt;&lt;p style=&quot;line-height: 100%;&quot;&gt;&lt;font face=&quot;Helvetica&quot; style=&quot;font-size: 10px;&quot;&gt;&amp;nbsp; &amp;nbsp; &amp;nbsp; &amp;nbsp; &amp;nbsp; merge.get(), flush_snap, history_gc_opts, &amp;amp;drsw, inject_cpu_relax_factor),&lt;/font&gt;&lt;/p&gt;&lt;p style=&quot;line-height: 100%;&quot;&gt;&lt;font face=&quot;Helvetica&quot; style=&quot;font-size: 10px;&quot;&gt;&amp;nbsp; &amp;nbsp; &amp;nbsp; &quot;Flush to disk failed&quot;);&lt;/font&gt;&lt;/p&gt;&lt;p style=&quot;line-height: 100%;&quot;&gt;&lt;font face=&quot;Helvetica&quot; style=&quot;font-size: 10px;&quot;&gt;&amp;nbsp; RETURN_NOT_OK_PREPEND(drsw.Finish(), &quot;Failed to finish DRS writer&quot;);&lt;/font&gt;&lt;/p&gt;&lt;div&gt;&lt;br&gt;&lt;/div&gt;" style="text;html=1;whiteSpace=wrap;overflow=hidden;rounded=0;fontFamily=Architects Daughter;fontSource=https%3A%2F%2Ffonts.googleapis.com%2Fcss%3Ffamily%3DArchitects%2BDaughter;strokeColor=default;" vertex="1" parent="1">
          <mxGeometry x="590" y="341" width="451" height="400" as="geometry" />
        </mxCell>
      </root>
    </mxGraphModel>
  </diagram>
</mxfile>
